<mxfile host="Electron" modified="2024-02-15T12:32:24.555Z" agent="Mozilla/5.0 (X11; Linux x86_64) AppleWebKit/537.36 (KHTML, like Gecko) draw.io/21.6.1 Chrome/112.0.5615.204 Electron/24.6.1 Safari/537.36" etag="3sTOByO4x-gzgOgV0oED" version="21.6.1" type="device">
  <diagram name="Page-1" id="KafUcJg5-WmZ6K7IxeHq">
    <mxGraphModel dx="1728" dy="1037" grid="1" gridSize="10" guides="1" tooltips="1" connect="1" arrows="1" fold="1" page="1" pageScale="1" pageWidth="4681" pageHeight="3300" math="0" shadow="0">
      <root>
        <mxCell id="0" />
        <mxCell id="1" parent="0" />
        <mxCell id="op3-RK94J-eC3h-jjMCj-5" value="index" style="edgeStyle=orthogonalEdgeStyle;rounded=0;orthogonalLoop=1;jettySize=auto;html=1;entryX=0.5;entryY=0;entryDx=0;entryDy=0;" parent="1" source="op3-RK94J-eC3h-jjMCj-1" target="op3-RK94J-eC3h-jjMCj-3" edge="1">
          <mxGeometry relative="1" as="geometry" />
        </mxCell>
        <mxCell id="op3-RK94J-eC3h-jjMCj-1" value="Instrumented Code" style="rounded=1;whiteSpace=wrap;html=1;" parent="1" vertex="1">
          <mxGeometry x="1880" y="970" width="130" height="40" as="geometry" />
        </mxCell>
        <mxCell id="op3-RK94J-eC3h-jjMCj-28" style="edgeStyle=orthogonalEdgeStyle;rounded=0;orthogonalLoop=1;jettySize=auto;html=1;entryX=0.5;entryY=0;entryDx=0;entryDy=0;exitX=0.5;exitY=1;exitDx=0;exitDy=0;" parent="1" source="op3-RK94J-eC3h-jjMCj-3" target="op3-RK94J-eC3h-jjMCj-24" edge="1">
          <mxGeometry relative="1" as="geometry" />
        </mxCell>
        <mxCell id="op3-RK94J-eC3h-jjMCj-33" style="edgeStyle=orthogonalEdgeStyle;rounded=0;orthogonalLoop=1;jettySize=auto;html=1;entryX=1;entryY=0.5;entryDx=0;entryDy=0;" parent="1" source="op3-RK94J-eC3h-jjMCj-3" target="op3-RK94J-eC3h-jjMCj-32" edge="1">
          <mxGeometry relative="1" as="geometry" />
        </mxCell>
        <mxCell id="op3-RK94J-eC3h-jjMCj-34" value="publish" style="edgeLabel;html=1;align=center;verticalAlign=middle;resizable=0;points=[];" parent="op3-RK94J-eC3h-jjMCj-33" vertex="1" connectable="0">
          <mxGeometry x="-0.0141" y="2" relative="1" as="geometry">
            <mxPoint as="offset" />
          </mxGeometry>
        </mxCell>
        <mxCell id="op3-RK94J-eC3h-jjMCj-3" value="&lt;h1&gt;&lt;font style=&quot;font-size: 12px;&quot;&gt;Indexes Build API&lt;/font&gt;&lt;/h1&gt;&lt;div&gt;&lt;div style=&quot;&quot;&gt;- (add-flow-init-trace …)&lt;/div&gt;&lt;div style=&quot;&quot;&gt;- (add-form-init-trace …)&lt;/div&gt;&lt;div style=&quot;&quot;&gt;- (add-fn-call-trace …)&lt;/div&gt;&lt;div style=&quot;&quot;&gt;- (add-expr-exec-trace …)&lt;/div&gt;&lt;div style=&quot;&quot;&gt;- (add-bind-trace …)&lt;/div&gt;&lt;/div&gt;" style="text;html=1;strokeColor=#9673a6;fillColor=#e1d5e7;spacing=5;spacingTop=-20;whiteSpace=wrap;overflow=hidden;rounded=0;" parent="1" vertex="1">
          <mxGeometry x="1865" y="1140" width="160" height="130" as="geometry" />
        </mxCell>
        <mxCell id="op3-RK94J-eC3h-jjMCj-6" value="&lt;font style=&quot;font-size: 7px;&quot;&gt;[coord, value pointer, ...]&lt;/font&gt;" style="rounded=0;whiteSpace=wrap;html=1;fillColor=#f8cecc;strokeColor=#b85450;" parent="1" vertex="1">
          <mxGeometry x="1905" y="1020" width="80" height="20" as="geometry" />
        </mxCell>
        <mxCell id="op3-RK94J-eC3h-jjMCj-22" value="" style="group" parent="1" vertex="1" connectable="0">
          <mxGeometry x="1825" y="1380" width="200" height="220" as="geometry" />
        </mxCell>
        <mxCell id="op3-RK94J-eC3h-jjMCj-7" value="" style="rounded=0;whiteSpace=wrap;html=1;" parent="op3-RK94J-eC3h-jjMCj-22" vertex="1">
          <mxGeometry x="40" y="20" width="120" height="160" as="geometry" />
        </mxCell>
        <mxCell id="op3-RK94J-eC3h-jjMCj-8" value="" style="rounded=0;whiteSpace=wrap;html=1;" parent="op3-RK94J-eC3h-jjMCj-22" vertex="1">
          <mxGeometry x="50" y="30" width="120" height="160" as="geometry" />
        </mxCell>
        <mxCell id="op3-RK94J-eC3h-jjMCj-9" value="" style="rounded=0;whiteSpace=wrap;html=1;fillColor=#d5e8d4;strokeColor=#82b366;" parent="op3-RK94J-eC3h-jjMCj-22" vertex="1">
          <mxGeometry x="60" y="40" width="120" height="160" as="geometry" />
        </mxCell>
        <mxCell id="op3-RK94J-eC3h-jjMCj-13" value="" style="group;fillColor=#ffe6cc;strokeColor=#d79b00;" parent="op3-RK94J-eC3h-jjMCj-22" vertex="1" connectable="0">
          <mxGeometry x="70" y="70" width="100" height="50" as="geometry" />
        </mxCell>
        <mxCell id="op3-RK94J-eC3h-jjMCj-10" value="" style="rounded=0;whiteSpace=wrap;html=1;fillColor=#ffe6cc;strokeColor=#d79b00;" parent="op3-RK94J-eC3h-jjMCj-13" vertex="1">
          <mxGeometry width="100" height="50" as="geometry" />
        </mxCell>
        <mxCell id="op3-RK94J-eC3h-jjMCj-11" value="&lt;font style=&quot;font-size: 8px;&quot;&gt;Thread-0&lt;/font&gt;" style="text;html=1;strokeColor=none;fillColor=none;align=center;verticalAlign=middle;whiteSpace=wrap;rounded=0;" parent="op3-RK94J-eC3h-jjMCj-13" vertex="1">
          <mxGeometry width="40" height="10" as="geometry" />
        </mxCell>
        <mxCell id="op3-RK94J-eC3h-jjMCj-12" value="timeline" style="rounded=0;whiteSpace=wrap;html=1;" parent="op3-RK94J-eC3h-jjMCj-13" vertex="1">
          <mxGeometry x="7.5" y="20" width="85" height="20" as="geometry" />
        </mxCell>
        <mxCell id="op3-RK94J-eC3h-jjMCj-14" value="" style="group;fillColor=#ffe6cc;strokeColor=#d79b00;" parent="op3-RK94J-eC3h-jjMCj-22" vertex="1" connectable="0">
          <mxGeometry x="70" y="130" width="100" height="50" as="geometry" />
        </mxCell>
        <mxCell id="op3-RK94J-eC3h-jjMCj-15" value="" style="rounded=0;whiteSpace=wrap;html=1;fillColor=#ffe6cc;strokeColor=#d79b00;" parent="op3-RK94J-eC3h-jjMCj-14" vertex="1">
          <mxGeometry width="100" height="50" as="geometry" />
        </mxCell>
        <mxCell id="op3-RK94J-eC3h-jjMCj-16" value="&lt;font style=&quot;font-size: 8px;&quot;&gt;Thread-1&lt;/font&gt;" style="text;html=1;strokeColor=none;fillColor=none;align=center;verticalAlign=middle;whiteSpace=wrap;rounded=0;" parent="op3-RK94J-eC3h-jjMCj-14" vertex="1">
          <mxGeometry width="40" height="10" as="geometry" />
        </mxCell>
        <mxCell id="op3-RK94J-eC3h-jjMCj-17" value="timeline" style="rounded=0;whiteSpace=wrap;html=1;" parent="op3-RK94J-eC3h-jjMCj-14" vertex="1">
          <mxGeometry x="7.5" y="20" width="85" height="20" as="geometry" />
        </mxCell>
        <mxCell id="op3-RK94J-eC3h-jjMCj-18" value="&lt;font style=&quot;font-size: 7px;&quot;&gt;Flow-0&lt;/font&gt;" style="text;html=1;strokeColor=none;fillColor=none;align=center;verticalAlign=middle;whiteSpace=wrap;rounded=0;" parent="op3-RK94J-eC3h-jjMCj-22" vertex="1">
          <mxGeometry x="30" y="20" width="60" height="10" as="geometry" />
        </mxCell>
        <mxCell id="op3-RK94J-eC3h-jjMCj-19" value="&lt;font style=&quot;font-size: 7px;&quot;&gt;Flow-1&lt;/font&gt;" style="text;html=1;strokeColor=none;fillColor=none;align=center;verticalAlign=middle;whiteSpace=wrap;rounded=0;" parent="op3-RK94J-eC3h-jjMCj-22" vertex="1">
          <mxGeometry x="40" y="30" width="60" height="10" as="geometry" />
        </mxCell>
        <mxCell id="op3-RK94J-eC3h-jjMCj-20" value="&lt;font style=&quot;font-size: 7px;&quot;&gt;Flow-2&lt;/font&gt;" style="text;html=1;strokeColor=none;fillColor=none;align=center;verticalAlign=middle;whiteSpace=wrap;rounded=0;" parent="op3-RK94J-eC3h-jjMCj-22" vertex="1">
          <mxGeometry x="50" y="40" width="60" height="10" as="geometry" />
        </mxCell>
        <mxCell id="op3-RK94J-eC3h-jjMCj-21" value="flow-thread-registry" style="swimlane;horizontal=0;whiteSpace=wrap;html=1;" parent="op3-RK94J-eC3h-jjMCj-22" vertex="1">
          <mxGeometry width="200" height="220" as="geometry" />
        </mxCell>
        <mxCell id="op3-RK94J-eC3h-jjMCj-23" style="edgeStyle=orthogonalEdgeStyle;rounded=0;orthogonalLoop=1;jettySize=auto;html=1;entryX=0.5;entryY=0;entryDx=0;entryDy=0;" parent="1" source="op3-RK94J-eC3h-jjMCj-3" target="op3-RK94J-eC3h-jjMCj-12" edge="1">
          <mxGeometry relative="1" as="geometry" />
        </mxCell>
        <mxCell id="op3-RK94J-eC3h-jjMCj-24" value="forms-registry" style="swimlane;horizontal=0;whiteSpace=wrap;html=1;" parent="1" vertex="1">
          <mxGeometry x="2070" y="1380" width="200" height="220" as="geometry" />
        </mxCell>
        <mxCell id="op3-RK94J-eC3h-jjMCj-25" value="&lt;font style=&quot;font-size: 8px;&quot;&gt;(defn foo [...])&lt;/font&gt;" style="rounded=1;whiteSpace=wrap;html=1;fillColor=#f8cecc;strokeColor=#b85450;" parent="op3-RK94J-eC3h-jjMCj-24" vertex="1">
          <mxGeometry x="50" y="20" width="120" height="30" as="geometry" />
        </mxCell>
        <mxCell id="op3-RK94J-eC3h-jjMCj-26" value="&lt;font style=&quot;font-size: 8px;&quot;&gt;(defn bar [...])&lt;/font&gt;" style="rounded=1;whiteSpace=wrap;html=1;fillColor=#f8cecc;strokeColor=#b85450;" parent="op3-RK94J-eC3h-jjMCj-24" vertex="1">
          <mxGeometry x="50" y="60" width="120" height="30" as="geometry" />
        </mxCell>
        <mxCell id="op3-RK94J-eC3h-jjMCj-52" style="edgeStyle=orthogonalEdgeStyle;rounded=0;orthogonalLoop=1;jettySize=auto;html=1;entryX=0.75;entryY=1;entryDx=0;entryDy=0;" parent="1" source="op3-RK94J-eC3h-jjMCj-32" target="op3-RK94J-eC3h-jjMCj-50" edge="1">
          <mxGeometry relative="1" as="geometry" />
        </mxCell>
        <mxCell id="op3-RK94J-eC3h-jjMCj-53" value="push" style="edgeLabel;html=1;align=center;verticalAlign=middle;resizable=0;points=[];" parent="op3-RK94J-eC3h-jjMCj-52" vertex="1" connectable="0">
          <mxGeometry x="-0.3617" y="1" relative="1" as="geometry">
            <mxPoint as="offset" />
          </mxGeometry>
        </mxCell>
        <mxCell id="op3-RK94J-eC3h-jjMCj-41" style="edgeStyle=orthogonalEdgeStyle;rounded=0;orthogonalLoop=1;jettySize=auto;html=1;entryX=0;entryY=0.5;entryDx=0;entryDy=0;" parent="1" source="op3-RK94J-eC3h-jjMCj-35" target="op3-RK94J-eC3h-jjMCj-29" edge="1">
          <mxGeometry relative="1" as="geometry" />
        </mxCell>
        <mxCell id="op3-RK94J-eC3h-jjMCj-35" value="flow-storm.api" style="rounded=0;whiteSpace=wrap;html=1;" parent="1" vertex="1">
          <mxGeometry x="1200" y="1470" width="120" height="30" as="geometry" />
        </mxCell>
        <mxCell id="op3-RK94J-eC3h-jjMCj-42" style="edgeStyle=orthogonalEdgeStyle;rounded=0;orthogonalLoop=1;jettySize=auto;html=1;exitX=1.042;exitY=0.578;exitDx=0;exitDy=0;exitPerimeter=0;entryX=0;entryY=0.5;entryDx=0;entryDy=0;" parent="1" source="op3-RK94J-eC3h-jjMCj-36" target="op3-RK94J-eC3h-jjMCj-29" edge="1">
          <mxGeometry relative="1" as="geometry">
            <mxPoint x="1530" y="1555" as="targetPoint" />
            <mxPoint x="1270" y="1600" as="sourcePoint" />
          </mxGeometry>
        </mxCell>
        <mxCell id="op3-RK94J-eC3h-jjMCj-36" value="flow-storm.storm-api" style="rounded=0;whiteSpace=wrap;html=1;" parent="1" vertex="1">
          <mxGeometry x="1200" y="1520" width="120" height="30" as="geometry" />
        </mxCell>
        <mxCell id="op3-RK94J-eC3h-jjMCj-39" style="edgeStyle=orthogonalEdgeStyle;rounded=0;orthogonalLoop=1;jettySize=auto;html=1;entryX=-0.036;entryY=0.533;entryDx=0;entryDy=0;entryPerimeter=0;" parent="1" source="op3-RK94J-eC3h-jjMCj-37" target="op3-RK94J-eC3h-jjMCj-35" edge="1">
          <mxGeometry relative="1" as="geometry" />
        </mxCell>
        <mxCell id="op3-RK94J-eC3h-jjMCj-37" value="Vanilla&lt;br&gt;REPL" style="ellipse;whiteSpace=wrap;html=1;aspect=fixed;" parent="1" vertex="1">
          <mxGeometry x="1060" y="1430" width="80" height="80" as="geometry" />
        </mxCell>
        <mxCell id="op3-RK94J-eC3h-jjMCj-40" style="edgeStyle=orthogonalEdgeStyle;rounded=0;orthogonalLoop=1;jettySize=auto;html=1;entryX=-0.036;entryY=0.556;entryDx=0;entryDy=0;entryPerimeter=0;" parent="1" source="op3-RK94J-eC3h-jjMCj-38" target="op3-RK94J-eC3h-jjMCj-36" edge="1">
          <mxGeometry relative="1" as="geometry" />
        </mxCell>
        <mxCell id="op3-RK94J-eC3h-jjMCj-38" value="Storm&lt;br&gt;REPL" style="ellipse;whiteSpace=wrap;html=1;aspect=fixed;" parent="1" vertex="1">
          <mxGeometry x="1060" y="1520" width="80" height="80" as="geometry" />
        </mxCell>
        <mxCell id="op3-RK94J-eC3h-jjMCj-48" value="" style="group" parent="1" vertex="1" connectable="0">
          <mxGeometry x="1120" y="1170" width="160" height="140" as="geometry" />
        </mxCell>
        <mxCell id="op3-RK94J-eC3h-jjMCj-43" value="&lt;h1 style=&quot;font-size: 8px;&quot;&gt;&lt;font style=&quot;font-size: 8px;&quot;&gt;&lt;br&gt;&lt;/font&gt;&lt;/h1&gt;&lt;h1 style=&quot;font-size: 8px;&quot;&gt;Debuggers API&lt;/h1&gt;&lt;div style=&quot;font-size: 8px;&quot;&gt;&lt;div style=&quot;&quot;&gt;&lt;div style=&quot;&quot;&gt;&lt;div&gt;Exposes Indexes API with reified value pointers&amp;nbsp;&lt;/div&gt;&lt;/div&gt;&lt;div&gt;&lt;br&gt;&lt;/div&gt;&lt;/div&gt;&lt;/div&gt;" style="text;html=1;strokeColor=#d6b656;fillColor=#fff2cc;spacing=5;spacingTop=-20;whiteSpace=wrap;overflow=hidden;rounded=0;" parent="op3-RK94J-eC3h-jjMCj-48" vertex="1">
          <mxGeometry width="160" height="140" as="geometry" />
        </mxCell>
        <mxCell id="op3-RK94J-eC3h-jjMCj-46" value="&lt;h1 style=&quot;font-size: 8px;&quot;&gt;&lt;br&gt;&lt;/h1&gt;&lt;div style=&quot;text-align: center;&quot;&gt;&lt;font style=&quot;font-size: 10px;&quot;&gt;&lt;b&gt;Value references&lt;/b&gt;&lt;/font&gt;&lt;/div&gt;&lt;div style=&quot;text-align: center;&quot;&gt;&lt;font style=&quot;font-size: 10px;&quot;&gt;{vid value-ptr}&lt;/font&gt;&lt;/div&gt;" style="text;html=1;strokeColor=#d6b656;fillColor=#fff2cc;spacing=5;spacingTop=-20;whiteSpace=wrap;overflow=hidden;rounded=0;" parent="op3-RK94J-eC3h-jjMCj-48" vertex="1">
          <mxGeometry x="30" y="72.5" width="90" height="45" as="geometry" />
        </mxCell>
        <mxCell id="op3-RK94J-eC3h-jjMCj-49" style="edgeStyle=orthogonalEdgeStyle;rounded=0;orthogonalLoop=1;jettySize=auto;html=1;entryX=0;entryY=0.25;entryDx=0;entryDy=0;" parent="1" source="op3-RK94J-eC3h-jjMCj-43" target="op3-RK94J-eC3h-jjMCj-29" edge="1">
          <mxGeometry relative="1" as="geometry">
            <Array as="points">
              <mxPoint x="1370" y="1240" />
              <mxPoint x="1370" y="1411" />
            </Array>
          </mxGeometry>
        </mxCell>
        <mxCell id="op3-RK94J-eC3h-jjMCj-51" style="edgeStyle=orthogonalEdgeStyle;rounded=0;orthogonalLoop=1;jettySize=auto;html=1;entryX=0.5;entryY=0;entryDx=0;entryDy=0;" parent="1" source="op3-RK94J-eC3h-jjMCj-50" target="op3-RK94J-eC3h-jjMCj-43" edge="1">
          <mxGeometry relative="1" as="geometry" />
        </mxCell>
        <mxCell id="op3-RK94J-eC3h-jjMCj-50" value="remote-websocket-client" style="rounded=0;whiteSpace=wrap;html=1;horizontal=0;" parent="1" vertex="1">
          <mxGeometry x="1185" y="910" width="30" height="170" as="geometry" />
        </mxCell>
        <mxCell id="op3-RK94J-eC3h-jjMCj-54" value="" style="endArrow=none;dashed=1;html=1;rounded=0;fontColor=#EA6B66;labelBorderColor=#EA6B66;labelBackgroundColor=#EA6B66;fillColor=#f8cecc;strokeColor=#b85450;" parent="1" edge="1">
          <mxGeometry width="50" height="50" relative="1" as="geometry">
            <mxPoint x="870" y="870" as="sourcePoint" />
            <mxPoint x="2290" y="870" as="targetPoint" />
          </mxGeometry>
        </mxCell>
        <mxCell id="op3-RK94J-eC3h-jjMCj-55" value="Runtime (JVM | Browser | NodeJS)" style="text;html=1;strokeColor=none;fillColor=none;align=center;verticalAlign=middle;whiteSpace=wrap;rounded=0;fontColor=#EA6B66;" parent="1" vertex="1">
          <mxGeometry x="890" y="870" width="200" height="30" as="geometry" />
        </mxCell>
        <mxCell id="op3-RK94J-eC3h-jjMCj-63" style="edgeStyle=orthogonalEdgeStyle;rounded=0;orthogonalLoop=1;jettySize=auto;html=1;entryX=0.5;entryY=0;entryDx=0;entryDy=0;fillColor=#cdeb8b;strokeColor=#36393d;" parent="1" source="op3-RK94J-eC3h-jjMCj-56" target="op3-RK94J-eC3h-jjMCj-57" edge="1">
          <mxGeometry relative="1" as="geometry" />
        </mxCell>
        <mxCell id="op3-RK94J-eC3h-jjMCj-56" value="Debugger UI" style="shape=process;whiteSpace=wrap;html=1;backgroundOutline=1;fillColor=#cdeb8b;strokeColor=#36393d;" parent="1" vertex="1">
          <mxGeometry x="1150" y="520" width="120" height="60" as="geometry" />
        </mxCell>
        <mxCell id="op3-RK94J-eC3h-jjMCj-57" value="runtime-api" style="rounded=0;whiteSpace=wrap;html=1;fillColor=#cdeb8b;strokeColor=#36393d;" parent="1" vertex="1">
          <mxGeometry x="1150" y="600" width="120" height="20" as="geometry" />
        </mxCell>
        <mxCell id="op3-RK94J-eC3h-jjMCj-64" style="edgeStyle=orthogonalEdgeStyle;rounded=0;orthogonalLoop=1;jettySize=auto;html=1;entryX=0.522;entryY=-0.05;entryDx=0;entryDy=0;entryPerimeter=0;" parent="1" source="op3-RK94J-eC3h-jjMCj-60" target="op3-RK94J-eC3h-jjMCj-62" edge="1">
          <mxGeometry relative="1" as="geometry" />
        </mxCell>
        <mxCell id="op3-RK94J-eC3h-jjMCj-66" style="edgeStyle=orthogonalEdgeStyle;rounded=0;orthogonalLoop=1;jettySize=auto;html=1;entryX=0.5;entryY=0;entryDx=0;entryDy=0;startArrow=classic;startFill=1;" parent="1" source="op3-RK94J-eC3h-jjMCj-60" target="op3-RK94J-eC3h-jjMCj-50" edge="1">
          <mxGeometry relative="1" as="geometry">
            <Array as="points">
              <mxPoint x="1200" y="710" />
              <mxPoint x="1200" y="710" />
            </Array>
          </mxGeometry>
        </mxCell>
        <mxCell id="op3-RK94J-eC3h-jjMCj-60" value="remote" style="rounded=0;whiteSpace=wrap;html=1;fillColor=#cdeb8b;strokeColor=#36393d;" parent="1" vertex="1">
          <mxGeometry x="1150" y="620" width="60" height="20" as="geometry" />
        </mxCell>
        <mxCell id="op3-RK94J-eC3h-jjMCj-67" style="edgeStyle=orthogonalEdgeStyle;rounded=0;orthogonalLoop=1;jettySize=auto;html=1;exitX=0.5;exitY=1;exitDx=0;exitDy=0;entryX=0.727;entryY=-0.029;entryDx=0;entryDy=0;entryPerimeter=0;dashed=1;" parent="1" source="op3-RK94J-eC3h-jjMCj-61" target="op3-RK94J-eC3h-jjMCj-43" edge="1">
          <mxGeometry relative="1" as="geometry" />
        </mxCell>
        <mxCell id="op3-RK94J-eC3h-jjMCj-61" value="local" style="rounded=0;whiteSpace=wrap;html=1;fillColor=#cdeb8b;strokeColor=#36393d;" parent="1" vertex="1">
          <mxGeometry x="1210" y="620" width="60" height="20" as="geometry" />
        </mxCell>
        <mxCell id="op3-RK94J-eC3h-jjMCj-65" style="edgeStyle=orthogonalEdgeStyle;rounded=0;orthogonalLoop=1;jettySize=auto;html=1;entryX=0.25;entryY=0;entryDx=0;entryDy=0;" parent="1" source="op3-RK94J-eC3h-jjMCj-62" target="op3-RK94J-eC3h-jjMCj-43" edge="1">
          <mxGeometry relative="1" as="geometry" />
        </mxCell>
        <mxCell id="op3-RK94J-eC3h-jjMCj-62" value="REPL" style="rounded=0;whiteSpace=wrap;html=1;horizontal=0;" parent="1" vertex="1">
          <mxGeometry x="1140" y="710" width="30" height="80" as="geometry" />
        </mxCell>
        <mxCell id="op3-RK94J-eC3h-jjMCj-69" value="" style="swimlane;startSize=0;" parent="1" vertex="1">
          <mxGeometry x="750" y="340" width="1690" height="1360" as="geometry" />
        </mxCell>
        <mxCell id="op3-RK94J-eC3h-jjMCj-68" value="&lt;b&gt;High level overview of FlowStorm architecture&lt;/b&gt;" style="text;html=1;strokeColor=none;fillColor=none;align=center;verticalAlign=middle;whiteSpace=wrap;rounded=0;" parent="op3-RK94J-eC3h-jjMCj-69" vertex="1">
          <mxGeometry x="565" y="60" width="680" height="30" as="geometry" />
        </mxCell>
        <mxCell id="op3-RK94J-eC3h-jjMCj-29" value="&lt;h1 style=&quot;font-size: 8px;&quot;&gt;&lt;font style=&quot;font-size: 8px;&quot;&gt;&lt;br&gt;&lt;/font&gt;&lt;/h1&gt;&lt;h1 style=&quot;font-size: 8px;&quot;&gt;&lt;font style=&quot;font-size: 8px;&quot;&gt;Indexes API&lt;/font&gt;&lt;/h1&gt;&lt;div style=&quot;font-size: 8px;&quot;&gt;&lt;div style=&quot;&quot;&gt;&lt;div style=&quot;&quot;&gt;&lt;font style=&quot;font-size: 8px;&quot;&gt;- ...&lt;/font&gt;&lt;/div&gt;&lt;div style=&quot;&quot;&gt;&lt;font style=&quot;font-size: 8px;&quot;&gt;- (get-form ...)&lt;/font&gt;&lt;/div&gt;&lt;div style=&quot;&quot;&gt;&lt;font style=&quot;font-size: 8px;&quot;&gt;- (all-threads ...)&lt;/font&gt;&lt;/div&gt;&lt;div style=&quot;&quot;&gt;&lt;font style=&quot;font-size: 8px;&quot;&gt;- (all-forms ...)&lt;/font&gt;&lt;/div&gt;&lt;div style=&quot;&quot;&gt;&lt;font style=&quot;font-size: 8px;&quot;&gt;- (timeline-count ...)&lt;/font&gt;&lt;/div&gt;&lt;div style=&quot;&quot;&gt;&lt;font style=&quot;font-size: 8px;&quot;&gt;- (timeline-entry ...)&lt;/font&gt;&lt;/div&gt;&lt;div style=&quot;&quot;&gt;&lt;font style=&quot;font-size: 8px;&quot;&gt;- ...&lt;/font&gt;&lt;/div&gt;&lt;div style=&quot;&quot;&gt;&lt;font style=&quot;font-size: 8px;&quot;&gt;- ...&lt;/font&gt;&lt;/div&gt;&lt;/div&gt;&lt;/div&gt;" style="text;html=1;strokeColor=#9673a6;fillColor=#e1d5e7;spacing=5;spacingTop=-20;whiteSpace=wrap;overflow=hidden;rounded=0;" parent="op3-RK94J-eC3h-jjMCj-69" vertex="1">
          <mxGeometry x="850" y="1045" width="160" height="105" as="geometry" />
        </mxCell>
        <mxCell id="op3-RK94J-eC3h-jjMCj-32" value="&lt;h1 style=&quot;font-size: 8px;&quot;&gt;&lt;font style=&quot;font-size: 8px;&quot;&gt;&lt;br&gt;&lt;/font&gt;&lt;/h1&gt;&lt;h1 style=&quot;font-size: 8px;&quot;&gt;Events&lt;/h1&gt;&lt;div style=&quot;font-size: 8px;&quot;&gt;&lt;div style=&quot;&quot;&gt;&lt;div style=&quot;&quot;&gt;&lt;div&gt;- [:var-instrumented]&lt;/div&gt;&lt;div&gt;- [:var-uninstrumented]&lt;/div&gt;&lt;div&gt;- [:namespace-instrumented]&lt;/div&gt;&lt;div&gt;- [:namespace-uninstrumented]&lt;/div&gt;&lt;div&gt;- [:flow-created]&lt;/div&gt;&lt;div&gt;- [:threads-updated]&lt;/div&gt;&lt;div&gt;- [:tap]&lt;/div&gt;&lt;div&gt;- ...&lt;/div&gt;&lt;div&gt;- ...&lt;/div&gt;&lt;div&gt;&lt;br&gt;&lt;/div&gt;&lt;/div&gt;&lt;div&gt;&lt;br&gt;&lt;/div&gt;&lt;/div&gt;&lt;/div&gt;" style="text;html=1;strokeColor=#6c8ebf;fillColor=#dae8fc;spacing=5;spacingTop=-20;whiteSpace=wrap;overflow=hidden;rounded=0;" parent="op3-RK94J-eC3h-jjMCj-69" vertex="1">
          <mxGeometry x="700" y="700" width="160" height="120" as="geometry" />
        </mxCell>
        <mxCell id="bpvOFd_PEQqJzHh414_2-1" style="rounded=0;orthogonalLoop=1;jettySize=auto;html=1;exitX=1;exitY=0.5;exitDx=0;exitDy=0;entryX=0;entryY=0.5;entryDx=0;entryDy=0;" edge="1" parent="1" source="op3-RK94J-eC3h-jjMCj-29" target="op3-RK94J-eC3h-jjMCj-12">
          <mxGeometry relative="1" as="geometry" />
        </mxCell>
      </root>
    </mxGraphModel>
  </diagram>
</mxfile>
